<?xml version="1.0" encoding="UTF-8" standalone="no"?>
<!DOCTYPE svg PUBLIC "-//W3C//DTD SVG 1.1//EN" "http://www.w3.org/Graphics/SVG/1.1/DTD/svg11.dtd">
<svg width="100%" height="100%" viewBox="0 0 24 24" version="1.1" xmlns="http://www.w3.org/2000/svg" xmlns:xlink="http://www.w3.org/1999/xlink" xml:space="preserve" xmlns:serif="http://www.serif.com/" style="fill-rule:evenodd;clip-rule:evenodd;stroke-linejoin:round;stroke-miterlimit:2;">
    <g transform="matrix(1.28884,0,0,1.28359,-3.46538,-3.72035)">
        <path d="M8.66,19.299C8.81,19.299 8.95,19.289 9.09,19.269C9.56,20.419 10.69,21.229 12,21.229C13.31,21.229 14.44,20.419 14.91,19.269C15.05,19.289 15.2,19.299 15.34,19.299C17.07,19.299 18.48,17.889 18.48,16.159C18.48,15.449 18.23,14.769 17.81,14.229C18.24,13.689 18.48,13.009 18.48,12.299C18.48,10.569 17.07,9.159 15.34,9.159C15.19,9.159 15.05,9.169 14.91,9.189C14.44,8.039 13.31,7.229 12,7.229C10.69,7.229 9.56,8.039 9.09,9.189C8.95,9.169 8.8,9.159 8.66,9.159C6.93,9.159 5.52,10.569 5.52,12.299C5.52,13.009 5.77,13.689 6.19,14.229C5.76,14.769 5.51,15.449 5.51,16.159C5.51,17.889 6.92,19.299 8.66,19.299ZM12,19.229C11.38,19.229 10.88,18.739 10.86,18.129L10.98,17.039C11.3,17.159 11.64,17.229 12,17.229C12.36,17.229 12.71,17.159 13.03,17.039L13.14,18.129C13.12,18.739 12.62,19.229 12,19.229ZM15.34,17.299C15.1,17.299 14.88,17.229 14.7,17.099L13.89,16.529C14.44,16.079 14.83,15.439 14.95,14.699L15.83,15.119C16.23,15.309 16.49,15.709 16.49,16.149C16.49,16.318 16.454,16.478 16.389,16.621C16.208,17.023 15.804,17.299 15.34,17.299ZM14.69,11.359C14.89,11.229 15.11,11.159 15.34,11.159C15.97,11.159 16.48,11.669 16.48,12.299C16.48,12.739 16.23,13.129 15.82,13.329L14.94,13.749C14.82,13.009 14.43,12.369 13.87,11.919L14.69,11.359ZM12,9.229C12.62,9.229 13.12,9.719 13.14,10.329L13.03,11.419C12.71,11.299 12.36,11.229 12,11.229C11.64,11.229 11.3,11.299 10.98,11.419L10.86,10.329C10.88,9.719 11.38,9.229 12,9.229ZM8.66,11.159C8.9,11.159 9.12,11.229 9.3,11.359L10.11,11.919C9.56,12.369 9.17,13.009 9.05,13.749L8.17,13.329C7.77,13.129 7.51,12.739 7.51,12.299C7.51,11.669 8.03,11.159 8.66,11.159ZM8.17,15.129L9.05,14.709C9.17,15.449 9.56,16.089 10.12,16.539L9.31,17.089C9.11,17.219 8.89,17.289 8.66,17.289C8.03,17.289 7.52,16.779 7.52,16.149C7.51,15.719 7.77,15.329 8.17,15.129Z" style="fill:rgb(255,251,248);fill-rule:nonzero;"/>
    </g>
    <g transform="matrix(1.39087,0,0,1.3852,-5.80182,-3.43889)">
        <path d="M12,11.707C16.97,11.707 21,7.677 21,2.707C20.181,2.707 19.387,2.816 18.633,3.021C14.811,4.06 12,7.556 12,11.707ZM14.44,9.267C15.15,7.367 16.66,5.847 18.56,5.147C17.85,7.047 16.34,8.557 14.44,9.267Z" style="fill:white;fill-rule:nonzero;"/>
    </g>
    <g transform="matrix(1.38906,0,0,1.3834,-3.5655,-3.42592)">
        <path d="M3,2.707C3,7.677 7.03,11.707 12,11.707C12,6.737 7.97,2.707 3,2.707ZM5.44,5.147C7.34,5.857 8.86,7.367 9.56,9.267C7.66,8.557 6.15,7.047 5.44,5.147Z" style="fill:white;fill-rule:nonzero;"/>
    </g>
    <g transform="matrix(1.1439,0,0,1.13923,-1.72675,-1.66631)">
        <path d="M8.66,19.299C8.81,19.299 8.95,19.289 9.09,19.269C9.56,20.419 10.69,21.229 12,21.229C13.31,21.229 14.44,20.419 14.91,19.269C15.05,19.289 15.2,19.299 15.34,19.299C17.07,19.299 18.48,17.889 18.48,16.159C18.48,15.449 18.23,14.769 17.81,14.229C18.24,13.689 18.48,13.009 18.48,12.299C18.48,10.569 17.07,9.159 15.34,9.159C15.19,9.159 15.05,9.169 14.91,9.189C14.44,8.039 13.31,7.229 12,7.229C10.69,7.229 9.56,8.039 9.09,9.189C8.95,9.169 8.8,9.159 8.66,9.159C6.93,9.159 5.52,10.569 5.52,12.299C5.52,13.009 5.77,13.689 6.19,14.229C5.76,14.769 5.51,15.449 5.51,16.159C5.51,17.889 6.92,19.299 8.66,19.299ZM12,19.229C11.38,19.229 10.88,18.739 10.86,18.129L10.98,17.039C11.3,17.159 11.64,17.229 12,17.229C12.36,17.229 12.71,17.159 13.03,17.039L13.14,18.129C13.12,18.739 12.62,19.229 12,19.229ZM15.34,17.299C15.1,17.299 14.88,17.229 14.7,17.099L13.89,16.529C14.44,16.079 14.83,15.439 14.95,14.699L15.83,15.119C16.23,15.309 16.49,15.709 16.49,16.149C16.49,16.789 15.97,17.299 15.34,17.299ZM14.69,11.359C14.89,11.229 15.11,11.159 15.34,11.159C15.97,11.159 16.48,11.669 16.48,12.299C16.48,12.739 16.23,13.129 15.82,13.329L14.94,13.749C14.82,13.009 14.43,12.369 13.87,11.919L14.69,11.359ZM12,9.229C12.62,9.229 13.12,9.719 13.14,10.329L13.03,11.419C12.71,11.299 12.36,11.229 12,11.229C11.64,11.229 11.3,11.299 10.98,11.419L10.86,10.329C10.88,9.719 11.38,9.229 12,9.229ZM8.66,11.159C8.9,11.159 9.12,11.229 9.3,11.359L10.11,11.919C9.56,12.369 9.17,13.009 9.05,13.749L8.17,13.329C7.77,13.129 7.51,12.739 7.51,12.299C7.51,11.669 8.03,11.159 8.66,11.159ZM8.17,15.129L9.05,14.709C9.17,15.449 9.56,16.089 10.12,16.539L9.31,17.089C9.11,17.219 8.89,17.289 8.66,17.289C8.03,17.289 7.52,16.779 7.52,16.149C7.51,15.719 7.77,15.329 8.17,15.129ZM12,11.707C16.97,11.707 21,7.677 21,2.707C20.181,2.707 19.387,2.816 18.633,3.021C14.811,4.06 12,7.556 12,11.707ZM14.44,9.267C15.15,7.367 16.66,5.847 18.56,5.147C17.85,7.047 16.34,8.557 14.44,9.267ZM3,2.707C3,7.677 7.03,11.707 12,11.707C12,6.737 7.97,2.707 3,2.707ZM5.44,5.147C7.34,5.857 8.86,7.367 9.56,9.267C7.66,8.557 6.15,7.047 5.44,5.147Z" style="fill:rgb(179,118,60);fill-rule:nonzero;"/>
    </g>
    <path d="M12,20.24C11.291,20.24 10.719,19.682 10.696,18.987L10.833,17.745C11.199,17.882 11.588,17.962 12,17.962C12.412,17.962 12.812,17.882 13.178,17.745L13.304,18.987C13.281,19.682 12.709,20.24 12,20.24ZM15.821,18.041C15.546,18.041 15.294,17.962 15.089,17.814L14.162,17.164C14.791,16.652 15.237,15.922 15.374,15.079L16.381,15.558C16.839,15.774 17.136,16.23 17.136,16.731C17.136,17.46 16.541,18.041 15.821,18.041ZM7.619,15.569L8.626,15.091C8.763,15.934 9.209,16.663 9.849,17.176L8.923,17.802C8.694,17.95 8.442,18.03 8.179,18.03C7.459,18.03 6.875,17.449 6.875,16.731C6.864,16.241 7.161,15.797 7.619,15.569ZM15.077,11.274C15.306,11.126 15.558,11.046 15.821,11.046C16.541,11.046 17.125,11.628 17.125,12.345C17.125,12.846 16.839,13.291 16.37,13.519L15.363,13.997C15.226,13.154 14.78,12.425 14.139,11.912L15.077,11.274ZM8.179,11.046C8.454,11.046 8.706,11.126 8.911,11.274L9.838,11.912C9.209,12.425 8.763,13.154 8.626,13.997L7.619,13.519C7.161,13.291 6.864,12.846 6.864,12.345C6.864,11.628 7.459,11.046 8.179,11.046ZM12,8.848C12.709,8.848 13.281,9.406 13.304,10.101L13.178,11.343C12.812,11.206 12.412,11.126 12,11.126C11.588,11.126 11.199,11.206 10.833,11.343L10.696,10.101C10.719,9.406 11.291,8.848 12,8.848ZM14.791,8.89C15.197,7.808 15.832,6.834 16.637,6.031C17.442,5.228 18.417,4.596 19.504,4.197C18.692,6.361 16.965,8.082 14.791,8.89ZM4.496,4.197C5.583,4.601 6.561,5.234 7.367,6.035C8.174,6.837 8.809,7.808 9.209,8.89C7.035,8.082 5.308,6.361 4.496,4.197Z" style="fill:rgb(221,169,71);fill-rule:nonzero;"/>
</svg>
