<?xml version="1.0" encoding="UTF-8" standalone="no"?>
<!DOCTYPE svg PUBLIC "-//W3C//DTD SVG 1.1//EN" "http://www.w3.org/Graphics/SVG/1.1/DTD/svg11.dtd">
<svg width="100%" height="100%" viewBox="0 0 1024 1024" version="1.1" xmlns="http://www.w3.org/2000/svg" xmlns:xlink="http://www.w3.org/1999/xlink" xml:space="preserve" xmlns:serif="http://www.serif.com/" style="fill-rule:evenodd;clip-rule:evenodd;stroke-linejoin:round;stroke-miterlimit:2;">
    <g transform="matrix(69.6445,0,0,72.2353,-19.6395,-15.9247)">
        <rect x="0.004" y="0.024" width="15.144" height="14.557" style="fill:white;"/>
    </g>
    <g transform="matrix(84.362,0,0,110.829,96.1018,-6.26208)">
        <ellipse cx="4.93" cy="4.677" rx="4.903" ry="4.615" style="fill:white;"/>
    </g>
    <g transform="matrix(79.4443,0,0,103.568,120.347,27.6918)">
        <ellipse cx="4.93" cy="4.677" rx="4.903" ry="4.615" style="fill:rgb(148,81,17);"/>
    </g>
    <g transform="matrix(62.56,0,0,90.4793,203.588,88.9043)">
        <ellipse cx="4.93" cy="4.677" rx="4.903" ry="4.615" style="fill:rgb(179,160,39);"/>
    </g>
    <g transform="matrix(35.1193,0,0,35.1193,79.3947,95.8154)">
        <path d="M19.94,9.06C19.51,5.79 16.71,3.2 13.41,3.01C13.27,3 13.14,3 13,3C9.47,3 6.57,5.61 6.08,9L4.15,12.48C3.74,13.14 4.22,14 5,14L6,14L6,16C6,17.1 6.9,18 8,18L9,18L9,21L16,21L16,16.32C18.62,15.07 20.35,12.24 19.94,9.06ZM14.89,14.63L14,15.05L14,19L11,19L11,16L8,16L8,12L6.7,12L8.03,9.67C8.21,7.06 10.35,5 13,5C15.76,5 18,7.24 18,10C18,11.194 17.579,12.29 16.878,13.151C16.353,13.796 15.67,14.309 14.89,14.63Z" style="fill:rgb(85,56,27);fill-rule:nonzero;"/>
    </g>
</svg>
